<svg xmlns="http://www.w3.org/2000/svg" xmlns:xlink="http://www.w3.org/1999/xlink" zoomAndPan="magnify" preserveAspectRatio="xMidYMid meet" version="1.0" viewBox="37.5 141.67 300.02 122.53"><defs><g/><clipPath id="b02f8296a9"><path d="M 37.5 173 L 105.75 173 L 105.75 233.140625 L 37.5 233.140625 Z M 37.5 173 " clip-rule="nonzero"/></clipPath><clipPath id="65d56a0dcf"><path d="M 105 141.640625 L 105.75 141.640625 L 105.75 202 L 105 202 Z M 105 141.640625 " clip-rule="nonzero"/></clipPath><clipPath id="375b8d6377"><path d="M 269.398438 204 L 270 204 L 270 264.003906 L 269.398438 264.003906 Z M 269.398438 204 " clip-rule="nonzero"/></clipPath><clipPath id="afa4360331"><path d="M 269.398438 172.503906 L 337.617188 172.503906 L 337.617188 233 L 269.398438 233 Z M 269.398438 172.503906 " clip-rule="nonzero"/></clipPath></defs><g clip-path="url(#b02f8296a9)"><path fill="#0652e9" d="M 83.421875 215.785156 L 83.421875 224.085938 L 45.828125 206.621094 L 45.828125 199.882812 L 83.421875 182.417969 L 83.421875 190.722656 L 54.992188 203.171875 L 54.992188 203.328125 Z M 105.75 173.195312 L 42.878906 173.195312 C 39.910156 173.195312 37.507812 175.601562 37.507812 178.570312 L 37.507812 227.9375 C 37.507812 230.902344 39.910156 233.308594 42.878906 233.308594 L 88.296875 233.308594 L 105.75 173.195312 " fill-opacity="1" fill-rule="nonzero"/></g><g clip-path="url(#65d56a0dcf)"><path fill="#62e1e9" d="M 165.570312 175.328125 L 127.976562 192.558594 L 127.976562 184.257812 L 157.03125 171.804688 L 157.03125 171.648438 L 127.976562 159.195312 L 127.976562 150.894531 L 165.570312 168.125 Z M 123.203125 141.667969 L 105.75 201.785156 L 168.519531 201.785156 C 171.484375 201.785156 173.890625 199.378906 173.890625 196.410156 L 173.890625 147.042969 C 173.890625 144.074219 171.484375 141.667969 168.519531 141.667969 L 123.203125 141.667969 " fill-opacity="1" fill-rule="nonzero"/></g><g clip-path="url(#375b8d6377)"><path fill="#0652e9" d="M 247.039062 246.648438 L 247.039062 254.949219 L 209.445312 237.480469 L 209.445312 230.746094 L 247.039062 213.28125 L 247.039062 221.582031 L 218.609375 234.035156 L 218.609375 234.191406 Z M 269.367188 204.054688 L 206.496094 204.054688 C 203.527344 204.054688 201.121094 206.460938 201.121094 209.429688 L 201.121094 258.796875 C 201.121094 261.765625 203.527344 264.171875 206.496094 264.171875 L 251.914062 264.171875 L 269.367188 204.054688 " fill-opacity="1" fill-rule="nonzero"/></g><g clip-path="url(#afa4360331)"><path fill="#62e1e9" d="M 329.1875 206.191406 L 291.59375 223.421875 L 291.59375 215.117188 L 320.648438 202.667969 L 320.648438 202.511719 L 291.59375 190.054688 L 291.59375 181.753906 L 329.1875 198.984375 Z M 286.820312 172.53125 L 269.367188 232.648438 L 332.136719 232.648438 C 335.101562 232.648438 337.507812 230.242188 337.507812 227.269531 L 337.507812 177.902344 C 337.507812 174.9375 335.101562 172.53125 332.136719 172.53125 L 286.820312 172.53125 " fill-opacity="1" fill-rule="nonzero"/></g><g fill="#62e1e9" fill-opacity="1"><g transform="translate(111.828901, 211.782833)"><g><path d="M 7.3125 0.25 L 6.1875 0.046875 L 5.140625 -0.328125 L 4.59375 -0.484375 L 4.078125 -0.734375 L 3.703125 -1.140625 L 2.75 -1.734375 L 2.390625 -2.140625 L 2.015625 -2.5 L 1.5 -3.5 L 1.328125 -4 L 1.21875 -4.53125 L 1.140625 -5.078125 L 1.359375 -5.65625 L 1.84375 -5.875 L 3.9375 -5.984375 L 4.453125 -5.890625 L 4.9375 -5.953125 L 5.484375 -5.734375 L 6.390625 -4.75 L 6.84375 -4.453125 L 7.3125 -4.21875 L 8.6875 -4.078125 L 9.1875 -4.15625 L 10.03125 -4.21875 L 10.953125 -4.625 L 11.296875 -5.03125 L 11.515625 -5.703125 L 11.359375 -6.390625 L 11 -6.71875 L 10.03125 -7.171875 L 5.765625 -7.65625 L 4.78125 -7.984375 L 2.9375 -9 L 1.921875 -10.25 L 1.5 -11.1875 L 1.296875 -12.28125 L 1.28125 -13.125 L 1.359375 -14.453125 L 1.84375 -15.953125 L 2.796875 -17.234375 L 4.109375 -18.125 L 5.03125 -18.671875 L 6.0625 -19 L 6.546875 -19.078125 L 7.09375 -19.109375 L 7.6875 -19.265625 L 9.78125 -19.203125 L 10.84375 -19 L 12.359375 -18.484375 L 14.15625 -17.234375 L 14.75 -16.40625 L 15.515625 -15 L 15.5625 -14.484375 L 15.671875 -13.96875 L 15.453125 -13.5 L 14.9375 -13.125 L 14.453125 -13.171875 L 13.90625 -13.171875 L 13.171875 -13.234375 L 11.90625 -13.125 L 11.296875 -13.484375 L 10.890625 -14.015625 L 10.4375 -14.40625 L 9.9375 -14.734375 L 9.453125 -14.859375 L 8.59375 -14.96875 L 7.71875 -14.9375 L 7.234375 -14.828125 L 6.796875 -14.59375 L 6.390625 -14.296875 L 6.0625 -13.9375 L 5.921875 -13.203125 L 6.03125 -12.390625 L 6.4375 -12.015625 L 7.4375 -11.515625 L 8.890625 -11.21875 L 9.671875 -11.21875 L 10.25 -11.109375 L 10.78125 -11.09375 L 11.328125 -11 L 13.453125 -10.359375 L 13.9375 -10.046875 L 14.375 -9.84375 L 14.859375 -9.40625 L 15.5625 -8.59375 L 15.875 -8.15625 L 16.28125 -6.578125 L 16.328125 -5.703125 L 16.171875 -4.34375 L 16 -3.890625 L 15.84375 -3.390625 L 15.546875 -2.796875 L 15.265625 -2.421875 L 14.484375 -1.609375 L 12.640625 -0.484375 L 12.125 -0.25 L 11.625 -0.1875 L 11.09375 0.03125 L 10.546875 0.109375 L 10 0.25 L 9.453125 0.296875 Z M 7.3125 0.25 "/></g></g></g><g fill="#62e1e9" fill-opacity="1"><g transform="translate(129.159523, 211.782833)"><g><path d="M 2.828125 0.078125 L 2.34375 -0.25 L 2.0625 -1.09375 L 2.015625 -2.46875 L 2.0625 -3.015625 L 2.015625 -3.59375 L 2.03125 -4.015625 L 1.984375 -5.140625 L 2.0625 -6.25 L 2.015625 -6.734375 L 2.03125 -7.796875 L 1.953125 -8.390625 L 2.0625 -9.515625 L 1.984375 -9.96875 L 2.03125 -13.3125 L 1.953125 -13.859375 L 2.03125 -14.40625 L 1.984375 -17.71875 L 2.03125 -18.171875 L 2.28125 -18.6875 L 2.828125 -19.046875 L 3.421875 -19.078125 L 3.96875 -19.015625 L 4.484375 -19.046875 L 5.84375 -18.90625 L 6.625 -18.671875 L 6.984375 -18.234375 L 6.921875 -17.125 L 6.953125 -16.28125 L 6.90625 -15.625 L 6.953125 -15.140625 L 6.984375 -13.171875 L 6.953125 -12.65625 L 7.09375 -12.09375 L 7.546875 -11.765625 L 8.15625 -11.765625 L 8.6875 -11.921875 L 9.296875 -12.015625 L 9.78125 -12.234375 L 10.734375 -12.90625 L 11.359375 -13.78125 L 11.515625 -14.34375 L 11.6875 -14.75 L 11.90625 -16.515625 L 11.875 -17.0625 L 11.953125 -17.578125 L 11.953125 -18.171875 L 12.171875 -18.6875 L 12.75 -19.015625 L 13.5625 -19.046875 L 14.375 -18.9375 L 15.265625 -19.046875 L 16.078125 -18.96875 L 16.6875 -18.71875 L 16.921875 -18.171875 L 16.84375 -16.5 L 16.90625 -15.953125 L 16.703125 -14.203125 L 16.25 -12.640625 L 16.0625 -12.140625 L 15.65625 -11.4375 L 14.78125 -10.328125 L 13.9375 -9.625 L 13.578125 -9.046875 L 13.6875 -8.421875 L 14.59375 -6.984375 L 14.8125 -6.515625 L 15.109375 -6 L 15.40625 -5.625 L 16.25 -4.234375 L 16.609375 -3.796875 L 18.28125 -0.734375 L 18.15625 -0.140625 L 17.578125 0 L 17.03125 -0.03125 L 16.546875 0.03125 L 13.796875 0.046875 L 13.171875 -0.21875 L 12.65625 -0.734375 L 12.390625 -1.09375 L 12.125 -1.609375 L 11.796875 -2.015625 L 11.28125 -3.015625 L 11.03125 -3.390625 L 10.84375 -3.859375 L 9.734375 -5.671875 L 9.53125 -6.25 L 9.265625 -6.6875 L 8.640625 -7.140625 L 7.90625 -7.203125 L 7.234375 -6.90625 L 6.921875 -6.4375 L 7.015625 -3.59375 L 6.921875 -3.015625 L 6.984375 -0.84375 L 6.6875 -0.25 L 6.140625 -0.03125 L 5.265625 0.046875 L 4.515625 0 Z M 2.828125 0.078125 "/></g></g></g><g fill="#62e1e9" fill-opacity="1"><g transform="translate(147.98416, 211.782833)"><g><path d="M 9.109375 0.109375 L 8.5625 -0.03125 L 7.234375 -0.03125 L 6.40625 0.078125 L 5.328125 -0.03125 L 4.78125 0.03125 L 3.9375 0.046875 L 3.15625 -0.046875 L 2.640625 0 L 2.125 0 L 1.578125 -0.25 L 1.296875 -0.984375 L 1.390625 -3.484375 L 1.6875 -3.96875 L 3.484375 -4.515625 L 3.78125 -5.328125 L 3.703125 -13.671875 L 3.453125 -14.40625 L 2.9375 -14.734375 L 2.390625 -14.734375 L 1.796875 -15.03125 L 1.5 -15.5625 L 1.546875 -16.078125 L 1.46875 -18.09375 L 1.734375 -18.75 L 2.28125 -19.015625 L 2.90625 -19.015625 L 3.421875 -18.9375 L 5.65625 -18.9375 L 6.1875 -19.046875 L 6.6875 -19 L 9.96875 -19 L 10.46875 -18.6875 L 10.78125 -18.171875 L 10.765625 -15.484375 L 10.484375 -15.046875 L 9.921875 -14.828125 L 9.375 -14.75 L 8.78125 -14.515625 L 8.59375 -13.890625 L 8.484375 -11.140625 L 8.59375 -9.1875 L 8.53125 -8.59375 L 8.5625 -5.59375 L 8.484375 -5.078125 L 8.796875 -4.453125 L 9.453125 -4.234375 L 10.03125 -4.234375 L 10.625 -3.9375 L 10.953125 -3.421875 L 10.953125 -0.734375 L 10.671875 -0.21875 L 10.1875 0.046875 Z M 9.109375 0.109375 "/></g></g></g><g fill="#62e1e9" fill-opacity="1"><g transform="translate(160.31661, 211.782833)"><g><path d="M 2.0625 -0.984375 L 2.03125 -11.171875 L 1.984375 -11.6875 L 1.953125 -12.28125 L 2.03125 -13.28125 L 1.984375 -13.828125 L 2.03125 -14.34375 L 2.03125 -18.15625 L 2.28125 -18.75 L 2.859375 -18.96875 L 3.375 -19.046875 L 4.453125 -18.9375 L 5 -19.046875 L 6.0625 -19.046875 L 6.609375 -18.71875 L 6.875 -18.125 L 6.84375 -17.609375 L 6.921875 -16.0625 L 6.875 -14.96875 L 6.921875 -14.3125 L 6.90625 -5.109375 L 7.125 -4.5625 L 7.65625 -4.34375 L 8.234375 -4.40625 L 9.296875 -4.34375 L 9.78125 -4.421875 L 10.328125 -4.328125 L 11.4375 -4.34375 L 12.015625 -4.265625 L 12.53125 -4.375 L 13.09375 -4.421875 L 13.578125 -4.109375 L 13.828125 -3.28125 L 13.859375 -1.09375 L 13.5625 -0.25 L 13.046875 0.03125 L 7.65625 0 L 7.0625 0.046875 L 6.546875 -0.03125 L 5.515625 0.03125 L 4.453125 -0.03125 L 3.3125 0.046875 L 2.765625 0 L 2.25 -0.265625 Z M 2.0625 -0.984375 "/></g></g></g><g fill="#62e1e9" fill-opacity="1"><g transform="translate(174.930829, 211.782833)"><g><path d="M 2.0625 -0.984375 L 2.03125 -11.171875 L 1.984375 -11.6875 L 1.953125 -12.28125 L 2.03125 -13.28125 L 1.984375 -13.828125 L 2.03125 -14.34375 L 2.03125 -18.15625 L 2.28125 -18.75 L 2.859375 -18.96875 L 3.375 -19.046875 L 4.453125 -18.9375 L 5 -19.046875 L 6.0625 -19.046875 L 6.609375 -18.71875 L 6.875 -18.125 L 6.84375 -17.609375 L 6.921875 -16.0625 L 6.875 -14.96875 L 6.921875 -14.3125 L 6.90625 -5.109375 L 7.125 -4.5625 L 7.65625 -4.34375 L 8.234375 -4.40625 L 9.296875 -4.34375 L 9.78125 -4.421875 L 10.328125 -4.328125 L 11.4375 -4.34375 L 12.015625 -4.265625 L 12.53125 -4.375 L 13.09375 -4.421875 L 13.578125 -4.109375 L 13.828125 -3.28125 L 13.859375 -1.09375 L 13.5625 -0.25 L 13.046875 0.03125 L 7.65625 0 L 7.0625 0.046875 L 6.546875 -0.03125 L 5.515625 0.03125 L 4.453125 -0.03125 L 3.3125 0.046875 L 2.765625 0 L 2.25 -0.265625 Z M 2.0625 -0.984375 "/></g></g></g><g fill="#62e1e9" fill-opacity="1"><g transform="translate(189.545047, 211.782833)"><g/></g></g><g fill="#0652e9" fill-opacity="1"><g transform="translate(196.90702, 211.782833)"><g><path d="M 2.0625 -0.984375 L 2.03125 -11.171875 L 1.984375 -11.6875 L 1.953125 -12.28125 L 2.03125 -13.28125 L 1.984375 -13.828125 L 2.03125 -14.34375 L 2.03125 -18.15625 L 2.28125 -18.75 L 2.859375 -18.96875 L 3.375 -19.046875 L 4.453125 -18.9375 L 5 -19.046875 L 6.0625 -19.046875 L 6.609375 -18.71875 L 6.875 -18.125 L 6.84375 -17.609375 L 6.921875 -16.0625 L 6.875 -14.96875 L 6.921875 -14.3125 L 6.90625 -5.109375 L 7.125 -4.5625 L 7.65625 -4.34375 L 8.234375 -4.40625 L 9.296875 -4.34375 L 9.78125 -4.421875 L 10.328125 -4.328125 L 11.4375 -4.34375 L 12.015625 -4.265625 L 12.53125 -4.375 L 13.09375 -4.421875 L 13.578125 -4.109375 L 13.828125 -3.28125 L 13.859375 -1.09375 L 13.5625 -0.25 L 13.046875 0.03125 L 7.65625 0 L 7.0625 0.046875 L 6.546875 -0.03125 L 5.515625 0.03125 L 4.453125 -0.03125 L 3.3125 0.046875 L 2.765625 0 L 2.25 -0.265625 Z M 2.0625 -0.984375 "/></g></g></g><g fill="#0652e9" fill-opacity="1"><g transform="translate(211.521239, 211.782833)"><g><path d="M 9.109375 0.109375 L 8.5625 -0.03125 L 7.234375 -0.03125 L 6.40625 0.078125 L 5.328125 -0.03125 L 4.78125 0.03125 L 3.9375 0.046875 L 3.15625 -0.046875 L 2.640625 0 L 2.125 0 L 1.578125 -0.25 L 1.296875 -0.984375 L 1.390625 -3.484375 L 1.6875 -3.96875 L 3.484375 -4.515625 L 3.78125 -5.328125 L 3.703125 -13.671875 L 3.453125 -14.40625 L 2.9375 -14.734375 L 2.390625 -14.734375 L 1.796875 -15.03125 L 1.5 -15.5625 L 1.546875 -16.078125 L 1.46875 -18.09375 L 1.734375 -18.75 L 2.28125 -19.015625 L 2.90625 -19.015625 L 3.421875 -18.9375 L 5.65625 -18.9375 L 6.1875 -19.046875 L 6.6875 -19 L 9.96875 -19 L 10.46875 -18.6875 L 10.78125 -18.171875 L 10.765625 -15.484375 L 10.484375 -15.046875 L 9.921875 -14.828125 L 9.375 -14.75 L 8.78125 -14.515625 L 8.59375 -13.890625 L 8.484375 -11.140625 L 8.59375 -9.1875 L 8.53125 -8.59375 L 8.5625 -5.59375 L 8.484375 -5.078125 L 8.796875 -4.453125 L 9.453125 -4.234375 L 10.03125 -4.234375 L 10.625 -3.9375 L 10.953125 -3.421875 L 10.953125 -0.734375 L 10.671875 -0.21875 L 10.1875 0.046875 Z M 9.109375 0.109375 "/></g></g></g><g fill="#0652e9" fill-opacity="1"><g transform="translate(223.853689, 211.782833)"><g><path d="M 16.03125 -0.46875 L 15.625 -0.8125 L 14.921875 -1.609375 L 10.703125 -5.78125 L 10.25 -6.09375 L 9.890625 -6.5 L 7.96875 -8.34375 L 7.609375 -8.796875 L 7.25 -8.9375 L 7.0625 -8.484375 L 7.015625 -7.9375 L 6.984375 -1.0625 L 6.71875 -0.21875 L 6.171875 0.046875 L 5.59375 0.078125 L 4.53125 0 L 3.9375 0.046875 L 2.828125 0 L 2.25 -0.1875 L 2.015625 -0.703125 L 1.953125 -2.984375 L 2.015625 -3.5 L 1.953125 -7.96875 L 2.03125 -8.421875 L 1.984375 -9.53125 L 2.015625 -10 L 2.015625 -18.234375 L 2.25 -18.75 L 2.875 -19.015625 L 3.703125 -18.828125 L 4.328125 -18.5 L 4.734375 -18.171875 L 10.078125 -12.765625 L 10.84375 -12.171875 L 12.765625 -10.25 L 13.171875 -10.046875 L 13.34375 -10.515625 L 13.390625 -15.375 L 13.34375 -15.984375 L 13.421875 -17.125 L 13.34375 -17.546875 L 13.375 -18.125 L 13.671875 -18.6875 L 14.1875 -19 L 17.546875 -19.015625 L 18.09375 -18.71875 L 18.375 -18.171875 L 18.453125 -14.40625 L 18.375 -13.75 L 18.375 -11.0625 L 18.453125 -10.59375 L 18.390625 -0.671875 L 18.125 -0.140625 L 17.53125 0.046875 L 16.765625 -0.03125 Z M 16.03125 -0.46875 "/></g></g></g><g fill="#0652e9" fill-opacity="1"><g transform="translate(244.335327, 211.782833)"><g><path d="M 2.828125 0.078125 L 2.34375 -0.25 L 2.0625 -1.09375 L 2.015625 -2.46875 L 2.0625 -3.015625 L 2.015625 -3.59375 L 2.03125 -4.015625 L 1.984375 -5.140625 L 2.0625 -6.25 L 2.015625 -6.734375 L 2.03125 -7.796875 L 1.953125 -8.390625 L 2.0625 -9.515625 L 1.984375 -9.96875 L 2.03125 -13.3125 L 1.953125 -13.859375 L 2.03125 -14.40625 L 1.984375 -17.71875 L 2.03125 -18.171875 L 2.28125 -18.6875 L 2.828125 -19.046875 L 3.421875 -19.078125 L 3.96875 -19.015625 L 4.484375 -19.046875 L 5.84375 -18.90625 L 6.625 -18.671875 L 6.984375 -18.234375 L 6.921875 -17.125 L 6.953125 -16.28125 L 6.90625 -15.625 L 6.953125 -15.140625 L 6.984375 -13.171875 L 6.953125 -12.65625 L 7.09375 -12.09375 L 7.546875 -11.765625 L 8.15625 -11.765625 L 8.6875 -11.921875 L 9.296875 -12.015625 L 9.78125 -12.234375 L 10.734375 -12.90625 L 11.359375 -13.78125 L 11.515625 -14.34375 L 11.6875 -14.75 L 11.90625 -16.515625 L 11.875 -17.0625 L 11.953125 -17.578125 L 11.953125 -18.171875 L 12.171875 -18.6875 L 12.75 -19.015625 L 13.5625 -19.046875 L 14.375 -18.9375 L 15.265625 -19.046875 L 16.078125 -18.96875 L 16.6875 -18.71875 L 16.921875 -18.171875 L 16.84375 -16.5 L 16.90625 -15.953125 L 16.703125 -14.203125 L 16.25 -12.640625 L 16.0625 -12.140625 L 15.65625 -11.4375 L 14.78125 -10.328125 L 13.9375 -9.625 L 13.578125 -9.046875 L 13.6875 -8.421875 L 14.59375 -6.984375 L 14.8125 -6.515625 L 15.109375 -6 L 15.40625 -5.625 L 16.25 -4.234375 L 16.609375 -3.796875 L 18.28125 -0.734375 L 18.15625 -0.140625 L 17.578125 0 L 17.03125 -0.03125 L 16.546875 0.03125 L 13.796875 0.046875 L 13.171875 -0.21875 L 12.65625 -0.734375 L 12.390625 -1.09375 L 12.125 -1.609375 L 11.796875 -2.015625 L 11.28125 -3.015625 L 11.03125 -3.390625 L 10.84375 -3.859375 L 9.734375 -5.671875 L 9.53125 -6.25 L 9.265625 -6.6875 L 8.640625 -7.140625 L 7.90625 -7.203125 L 7.234375 -6.90625 L 6.921875 -6.4375 L 7.015625 -3.59375 L 6.921875 -3.015625 L 6.984375 -0.84375 L 6.6875 -0.25 L 6.140625 -0.03125 L 5.265625 0.046875 L 4.515625 0 Z M 2.828125 0.078125 "/></g></g></g></svg>